<svg width="39" height="25" viewBox="0 0 39 25" xmlns="http://www.w3.org/2000/svg"><title>ambulance</title><g fill="#FFF" fill-rule="evenodd"><path d="M33.398 5.26a1.171 1.171 0 0 0-.956-.493h-7.368v15.67h1.193a5.037 5.037 0 0 1 1.442-2.822 5.109 5.109 0 0 1 3.622-1.488c1.367 0 2.654.528 3.621 1.488a5.037 5.037 0 0 1 1.442 2.822h.641a1.16 1.16 0 0 0 1.166-1.157v-6.827c0-.235-.074-.466-.21-.663l-4.593-6.53zm1.247 6.522H27.52a.817.817 0 0 1-.82-.813V7.503c0-.45.369-.813.82-.813h4.332c.272 0 .525.131.676.355l2.623 3.785c.284.397-.007.952-.505.952z"/><path d="M3.527 20.437a5.037 5.037 0 0 1 1.442-2.822 5.109 5.109 0 0 1 3.622-1.488c1.367 0 2.654.528 3.621 1.488a5.037 5.037 0 0 1 1.442 2.822h10.064V3.37h3.132a1.16 1.16 0 0 0 1.166-1.156V1.193c0-.64-.52-1.156-1.166-1.156H2.148A1.16 1.16 0 0 0 .982 1.193V19.28c0 .64.52 1.157 1.166 1.157h1.38zM6.92 8.444c0-.64.52-1.156 1.165-1.156h2.654V4.655c0-.64.521-1.157 1.166-1.157h1.088a1.16 1.16 0 0 1 1.166 1.157v2.633h2.654a1.16 1.16 0 0 1 1.166 1.156v1.08c0 .64-.52 1.156-1.166 1.156H14.16v2.633c0 .64-.52 1.156-1.166 1.156h-1.088a1.16 1.16 0 0 1-1.166-1.156V10.68H8.085A1.16 1.16 0 0 1 6.92 9.523V8.444z"/><path d="M8.59 17.476a3.753 3.753 0 0 0-3.68 2.957c-.046.22-.073.443-.077.674v.097c0 .196.016.389.047.578.28 1.785 1.838 3.15 3.715 3.15 1.876 0 3.435-1.365 3.714-3.15a3.55 3.55 0 0 0 .047-.578v-.097a4.264 4.264 0 0 0-.078-.674 3.776 3.776 0 0 0-3.687-2.957zM31.33 24.935c2.076 0 3.758-1.669 3.758-3.727 0-.266-.027-.52-.081-.771a3.753 3.753 0 0 0-3.68-2.957 3.753 3.753 0 0 0-3.68 2.957 3.61 3.61 0 0 0-.082.77c.008 2.059 1.69 3.728 3.766 3.728z"/></g></svg>