<svg width="15" height="17" viewBox="0 0 15 17" xmlns="http://www.w3.org/2000/svg"><title>Shape</title><path d="M7.605 15.57c0-.098-.048-.147-.143-.147-.353 0-.656-.13-.91-.39a1.287 1.287 0 0 1-.382-.932c0-.098-.048-.147-.143-.147-.096 0-.144.05-.144.147 0 .447.154.828.462 1.143.308.316.68.473 1.117.473.095 0 .143-.049.143-.147zm7.318-2.644c0 .319-.113.594-.34.827a1.09 1.09 0 0 1-.807.348H9.758c0 .65-.225 1.203-.673 1.662-.448.46-.99.689-1.623.689-.634 0-1.175-.23-1.624-.689a2.292 2.292 0 0 1-.672-1.662H1.148c-.31 0-.58-.116-.807-.348A1.143 1.143 0 0 1 0 12.926c.299-.257.571-.526.816-.808.245-.281.5-.647.762-1.097.264-.45.486-.935.669-1.455.182-.52.331-1.15.448-1.891.117-.74.175-1.536.175-2.387 0-.93.35-1.795 1.05-2.593.699-.8 1.617-1.284 2.753-1.456A.933.933 0 0 1 6.6.881a.86.86 0 0 1 .25-.624.82.82 0 0 1 .61-.257.82.82 0 0 1 .61.257.86.86 0 0 1 .252.624.933.933 0 0 1-.072.358c1.136.172 2.054.657 2.753 1.456.7.798 1.05 1.663 1.05 2.593 0 .85.058 1.646.174 2.387.117.74.267 1.37.449 1.891.182.52.405 1.005.668 1.455.263.45.517.816.762 1.097.245.282.518.551.816.808z" fill="#333" fill-rule="evenodd"/></svg>