<svg width="34" height="26" viewBox="0 0 34 26" xmlns="http://www.w3.org/2000/svg"><title>electrocardiogram</title><g fill="#C1B1BA" fill-rule="evenodd"><path d="M10.51 24.84c0 .626.505 1.131 1.13 1.131h9.945c.625 0 1.13-.505 1.13-1.13v-1.535H10.51v1.534zM28.735 13.068h-6.841a.569.569 0 0 1-.53-.373l-1.13-3.117-2.999 6.325a.563.563 0 0 1-1.001.034l-2.194-3.931-.429.772a.56.56 0 0 1-.493.29H4.486v4.463h24.249v-4.463z"/><path d="M13.54 9.145a.563.563 0 0 1 .986 0l2.107 3.773 3.247-6.845a.563.563 0 0 1 1.04.049l1.854 5.118h5.961V4.455H4.485v6.785h7.892l1.163-2.095z"/><path d="M1.163 21.99h30.899c.624 0 1.128-.505 1.128-1.13V1.13c0-.625-.504-1.13-1.128-1.13H1.167C.542 0 .037.505.037 1.13v19.726a1.128 1.128 0 0 0 1.126 1.135zM3.28 4.008c0-.415.34-.754.753-.754h25.153c.414 0 .752.34.752.754v13.977a.755.755 0 0 1-.752.754H4.034a.755.755 0 0 1-.753-.754V4.007z"/></g></svg>