<svg width="32" height="25" viewBox="0 0 32 25" xmlns="http://www.w3.org/2000/svg"><title>list alt</title><path d="M6.853 18.381v1.11c0 .15-.056.28-.168.39a.55.55 0 0 1-.398.164H5.155a.55.55 0 0 1-.398-.165.528.528 0 0 1-.168-.39v-1.109c0-.15.056-.28.168-.39a.55.55 0 0 1 .398-.165h1.132a.55.55 0 0 1 .398.165c.112.11.168.24.168.39zm0-4.437v1.11c0 .15-.056.28-.168.39a.55.55 0 0 1-.398.164H5.155a.55.55 0 0 1-.398-.165.528.528 0 0 1-.168-.39v-1.109c0-.15.056-.28.168-.39a.55.55 0 0 1 .398-.165h1.132a.55.55 0 0 1 .398.165c.112.11.168.24.168.39zm0-4.437v1.11c0 .15-.056.28-.168.39a.55.55 0 0 1-.398.164H5.155a.55.55 0 0 1-.398-.165.528.528 0 0 1-.168-.39V9.507c0-.15.056-.28.168-.39a.55.55 0 0 1 .398-.164h1.132a.55.55 0 0 1 .398.164c.112.11.168.24.168.39zm20.37 8.874v1.11c0 .15-.056.28-.168.39a.55.55 0 0 1-.398.164H9.682a.55.55 0 0 1-.398-.165.528.528 0 0 1-.168-.39v-1.109c0-.15.056-.28.168-.39a.55.55 0 0 1 .398-.165h16.975a.55.55 0 0 1 .398.165c.112.11.168.24.168.39zm0-4.437v1.11c0 .15-.056.28-.168.39a.55.55 0 0 1-.398.164H9.682a.55.55 0 0 1-.398-.165.528.528 0 0 1-.168-.39v-1.109c0-.15.056-.28.168-.39a.55.55 0 0 1 .398-.165h16.975a.55.55 0 0 1 .398.165c.112.11.168.24.168.39zm0-4.437v1.11c0 .15-.056.28-.168.39a.55.55 0 0 1-.398.164H9.682a.55.55 0 0 1-.398-.165.528.528 0 0 1-.168-.39V9.507c0-.15.056-.28.168-.39a.55.55 0 0 1 .398-.164h16.975a.55.55 0 0 1 .398.164c.112.11.168.24.168.39zm2.264 12.202V7.289c0-.15-.056-.28-.168-.39a.55.55 0 0 0-.398-.165H2.89a.55.55 0 0 0-.397.165.528.528 0 0 0-.168.39v14.42c0 .15.056.28.168.39a.55.55 0 0 0 .398.164H28.92a.55.55 0 0 0 .398-.164.528.528 0 0 0 .168-.39zM31.75 2.852v18.857c0 .762-.277 1.415-.831 1.958a2.752 2.752 0 0 1-1.998.815H2.89a2.752 2.752 0 0 1-1.997-.815C.34 23.124.062 22.471.062 21.71V2.852c0-.763.278-1.416.832-1.959A2.752 2.752 0 0 1 2.892.08H28.92c.778 0 1.444.271 1.998.814.554.543.831 1.196.831 1.959z" fill="#C1B1BA" fill-rule="evenodd"/></svg>