<svg width="17" height="18" viewBox="0 0 17 18" xmlns="http://www.w3.org/2000/svg"><title>turn off</title><g fill="#FF0069" fill-rule="evenodd"><path d="M11.474 1.815v2.642c1.82.998 2.983 2.952 2.983 5.15 0 3.211-2.664 5.816-5.948 5.816-3.282 0-5.945-2.604-5.945-5.816 0-2.269 1.147-4.217 3.055-5.176V1.812C2.29 2.91.071 5.967.071 9.607c0 4.559 3.779 8.252 8.437 8.252 4.66 0 8.439-3.693 8.439-8.252a8.237 8.237 0 0 0-5.473-7.792z"/><path d="M8.455 8.857c.881 0 1.6-.54 1.6-1.21V1.255c0-.668-.719-1.209-1.6-1.209-.883 0-1.6.541-1.6 1.21v6.393c0 .67.717 1.21 1.6 1.21z"/></g></svg>