<svg width="27" height="26" viewBox="0 0 27 26" xmlns="http://www.w3.org/2000/svg"><title>customer support</title><g fill="#C1B1BA" fill-rule="evenodd"><path d="M13.31 19.57c-2.314 0-4.666-1.386-6.038-3.219-6.585 0-6.784 9.482-6.784 9.482h25.644s.517-9.524-6.888-9.524c-1.371 1.856-3.619 3.26-5.933 3.26zM18.826 8.202c0 2.728-2.47 7.945-5.52 7.945-3.045 0-5.517-5.218-5.517-7.945 0-2.726 2.47-4.94 5.517-4.94 3.05.002 5.52 2.215 5.52 4.94z"/><path d="M21.289 5.848c0-.511-.707-.924-1.583-.927V3.867c0-.157.06-3.831-6.38-3.831-6.438 0-6.379 3.674-6.379 3.831v1.09c-.016 0-.029-.004-.043-.004-.872 0-1.573.406-1.573.91v4.456c0 .5.703.907 1.573.907s1.576-.407 1.576-.907V5.862c0-.07-.043-.132-.069-.197V4.45c0-.112-.462-2.885 4.914-2.885 5.378 0 4.82 2.773 4.82 2.885v1.28c-.01.04-.041.076-.041.118v4.558c0 .513.711.929 1.592.929.02 0 .034-.007.053-.007v1.665h-1.58v1.57h3.136l-.016-8.715z"/></g></svg>